<svg xmlns="http://www.w3.org/2000/svg" xmlns:xlink="http://www.w3.org/1999/xlink" width="84" 
zoomAndPan="magnify" viewBox="0 0 63 30.000001" height="40" preserveAspectRatio="xMidYMid meet" version="1.0">
<defs><g/></defs><g fill="#02073e" fill-opacity="1"><g transform="translate(1.018295, 22.073721)"><g>
<path d="M 10.265625 -6.546875 L 12.984375 0 L 9.953125 0 L 7.5625 -6.03125 L 4.1875 -6.03125 L 4.1875 0 L 1.34375 0 L 1.34375 -15.09375 L 7.859375 -15.09375 C 8.804688 -15.09375 9.640625 -14.9375 10.359375 -14.625 C 11.078125 -14.3125 11.632812 -13.828125 12.03125 -13.171875 C 12.4375 -12.523438 12.640625 -11.679688 12.640625 -10.640625 C 12.640625 -9.648438 12.425781 -8.804688 12 -8.109375 C 11.582031 -7.410156 11.003906 -6.890625 10.265625 -6.546875 Z M 7.453125 -12.546875 L 4.1875 -12.546875 L 4.1875 -8.53125 L 7.453125 -8.53125 C 8.222656 -8.53125 8.804688 -8.695312 9.203125 -9.03125 C 9.609375 -9.375 9.8125 -9.878906 9.8125 -10.546875 C 9.8125 -11.191406 9.601562 -11.6875 9.1875 -12.03125 C 8.78125 -12.375 8.203125 -12.546875 7.453125 -12.546875 Z M 7.453125 -12.546875 "/></g></g></g><g fill="#02073e" fill-opacity="1"><g transform="translate(14.646831, 22.073721)"><g><path d="M 7.34375 0.28125 C 6.613281 0.28125 5.875 0.191406 5.125 0.015625 C 4.382812 -0.160156 3.695312 -0.445312 3.0625 -0.84375 C 2.425781 -1.238281 1.894531 -1.769531 1.46875 -2.4375 C 1.039062 -3.101562 0.78125 -3.925781 0.6875 -4.90625 L 3.640625 -4.90625 C 3.804688 -4.195312 4.082031 -3.640625 4.46875 -3.234375 C 4.851562 -2.828125 5.296875 -2.546875 5.796875 -2.390625 C 6.304688 -2.234375 6.828125 -2.15625 7.359375 -2.15625 C 8.140625 -2.15625 8.789062 -2.316406 9.3125 -2.640625 C 9.84375 -2.972656 10.109375 -3.503906 10.109375 -4.234375 C 10.109375 -4.765625 9.9375 -5.171875 9.59375 -5.453125 C 9.25 -5.742188 8.800781 -5.972656 8.25 -6.140625 C 7.707031 -6.304688 7.113281 -6.457031 6.46875 -6.59375 C 5.84375 -6.738281 5.21875 -6.894531 4.59375 -7.0625 C 3.976562 -7.226562 3.410156 -7.460938 2.890625 -7.765625 C 2.367188 -8.078125 1.953125 -8.484375 1.640625 -8.984375 C 1.335938 -9.492188 1.1875 -10.144531 1.1875 -10.9375 C 1.1875 -11.914062 1.421875 -12.726562 1.890625 -13.375 C 2.359375 -14.03125 2.992188 -14.523438 3.796875 -14.859375 C 4.597656 -15.203125 5.507812 -15.375 6.53125 -15.375 C 7.5 -15.375 8.410156 -15.203125 9.265625 -14.859375 C 10.128906 -14.515625 10.859375 -13.992188 11.453125 -13.296875 C 12.046875 -12.597656 12.421875 -11.703125 12.578125 -10.609375 L 9.671875 -10.609375 C 9.484375 -11.410156 9.097656 -12 8.515625 -12.375 C 7.929688 -12.75 7.25 -12.9375 6.46875 -12.9375 C 5.757812 -12.9375 5.171875 -12.785156 4.703125 -12.484375 C 4.242188 -12.191406 4.015625 -11.753906 4.015625 -11.171875 C 4.015625 -10.710938 4.175781 -10.347656 4.5 -10.078125 C 4.820312 -9.816406 5.242188 -9.609375 5.765625 -9.453125 C 6.296875 -9.304688 6.867188 -9.160156 7.484375 -9.015625 C 8.109375 -8.890625 8.738281 -8.726562 9.375 -8.53125 C 10.019531 -8.34375 10.613281 -8.085938 11.15625 -7.765625 C 11.707031 -7.441406 12.148438 -7.007812 12.484375 -6.46875 C 12.816406 -5.925781 12.984375 -5.226562 12.984375 -4.375 C 12.984375 -2.945312 12.488281 -1.8125 11.5 -0.96875 C 10.507812 -0.132812 9.125 0.28125 7.34375 0.28125 Z M 7.34375 0.28125 "/></g></g></g><g fill="#02073e" fill-opacity="1"><g transform="translate(28.413827, 22.073721)"><g><path d="M 2.546875 -12.328125 C 2.097656 -12.328125 1.710938 -12.460938 1.390625 -12.734375 C 1.066406 -13.015625 0.90625 -13.382812 0.90625 -13.84375 C 0.90625 -14.289062 1.066406 -14.65625 1.390625 -14.9375 C 1.710938 -15.226562 2.097656 -15.375 2.546875 -15.375 C 2.992188 -15.375 3.378906 -15.226562 3.703125 -14.9375 C 4.023438 -14.65625 4.1875 -14.289062 4.1875 -13.84375 C 4.1875 -13.382812 4.023438 -13.015625 3.703125 -12.734375 C 3.378906 -12.460938 2.992188 -12.328125 2.546875 -12.328125 Z M 3.875 0 L 1.203125 0 L 1.203125 -11.09375 L 3.875 -11.09375 Z M 3.875 0 "/></g></g></g><g fill="#02073e" fill-opacity="1"><g transform="translate(33.51711, 22.073721)"><g><path d="M 5.453125 0 L 3.734375 0 C 2.921875 0 2.289062 -0.1875 1.84375 -0.5625 C 1.394531 -0.945312 1.171875 -1.570312 1.171875 -2.4375 L 1.171875 -15.09375 L 3.84375 -15.09375 L 3.84375 -3.21875 C 3.84375 -2.851562 3.910156 -2.59375 4.046875 -2.4375 C 4.179688 -2.289062 4.414062 -2.21875 4.75 -2.21875 L 5.453125 -2.21875 Z M 5.453125 0 "/></g></g></g><g fill="#02073e" fill-opacity="1"><g transform="translate(39.49072, 22.073721)"><g><path d="M 6.453125 0 L 4.328125 0 L 0.234375 -11.09375 L 3.078125 -11.09375 L 5.375 -4.09375 L 7.71875 -11.09375 L 10.5625 -11.09375 Z M 6.453125 0 "/></g></g></g><g fill="#02073e" fill-opacity="1"><g transform="translate(50.290689, 22.073721)"><g><path d="M 4.40625 0.21875 C 3.363281 0.21875 2.492188 -0.0625 1.796875 -0.625 C 1.109375 -1.1875 0.765625 -1.992188 0.765625 -3.046875 C 0.765625 -3.640625 0.878906 -4.144531 1.109375 -4.5625 C 1.347656 -4.976562 1.65625 -5.316406 2.03125 -5.578125 C 2.394531 -5.828125 2.800781 -6.023438 3.25 -6.171875 C 3.707031 -6.316406 4.164062 -6.4375 4.625 -6.53125 L 7.9375 -7.140625 C 7.90625 -7.828125 7.722656 -8.347656 7.390625 -8.703125 C 7.066406 -9.054688 6.578125 -9.234375 5.921875 -9.234375 C 5.410156 -9.234375 4.960938 -9.082031 4.578125 -8.78125 C 4.191406 -8.488281 3.945312 -8.082031 3.84375 -7.5625 L 1.1875 -7.5625 C 1.320312 -8.425781 1.625 -9.132812 2.09375 -9.6875 C 2.570312 -10.25 3.148438 -10.660156 3.828125 -10.921875 C 4.503906 -11.191406 5.207031 -11.328125 5.9375 -11.328125 C 6.582031 -11.328125 7.203125 -11.234375 7.796875 -11.046875 C 8.390625 -10.867188 8.890625 -10.585938 9.296875 -10.203125 C 9.734375 -9.828125 10.039062 -9.390625 10.21875 -8.890625 C 10.40625 -8.398438 10.515625 -7.882812 10.546875 -7.34375 C 10.585938 -6.8125 10.609375 -6.289062 10.609375 -5.78125 L 10.609375 0 L 7.9375 0 L 7.9375 -1.5 C 7.65625 -1.007812 7.316406 -0.640625 6.921875 -0.390625 C 6.578125 -0.171875 6.191406 -0.015625 5.765625 0.078125 C 5.335938 0.171875 4.882812 0.21875 4.40625 0.21875 Z M 5.0625 -1.875 C 5.59375 -1.875 6.066406 -1.984375 6.484375 -2.203125 C 7.066406 -2.484375 7.457031 -2.867188 7.65625 -3.359375 C 7.863281 -3.847656 7.972656 -4.457031 7.984375 -5.1875 L 5.34375 -4.65625 C 4.957031 -4.582031 4.640625 -4.492188 4.390625 -4.390625 C 4.148438 -4.285156 3.953125 -4.160156 3.796875 -4.015625 C 3.691406 -3.910156 3.601562 -3.785156 3.53125 -3.640625 C 3.46875 -3.492188 3.4375 -3.328125 3.4375 -3.140625 C 3.4375 -2.734375 3.59375 -2.421875 3.90625 -2.203125 C 4.21875 -1.984375 4.601562 -1.875 5.0625 -1.875 Z M 5.0625 -1.875 "/></g></g></g></svg>